<svg width="24" height="24" viewBox="0 0 24 24" fill="none" xmlns="http://www.w3.org/2000/svg">
<g filter="url(#filter0_i_479_939)">
<path d="M5.47826 3C4.78615 3 4.17789 3.18545 3.72847 3.54259C3.27906 3.89972 3.00484 4.4422 3.00484 5.04225C3.00484 6.24234 4.0759 7.16772 5.47826 7.16772C6.19746 7.16772 6.81433 6.9543 7.25628 6.5721C7.69823 6.18989 7.95168 5.63631 7.95168 5.04225C7.95155 5.03599 7.95128 5.02973 7.95087 5.02348C7.89938 3.87716 6.87156 3 5.47826 3ZM3.41304 8.00811C3.3035 8.00812 3.19845 8.05214 3.12099 8.13048C3.04353 8.20882 3.00001 8.31507 3 8.42586V20.5406C3.00001 20.6514 3.04353 20.7577 3.12099 20.836C3.19845 20.9144 3.3035 20.9584 3.41304 20.9584H7.54348C7.65302 20.9584 7.75807 20.9144 7.83553 20.836C7.91299 20.7577 7.95651 20.6514 7.95652 20.5406V16.6552V8.42586C7.95651 8.31507 7.91299 8.20882 7.83553 8.13048C7.75807 8.05214 7.65302 8.00812 7.54348 8.00811H3.41304ZM9.6087 8.00811C9.49915 8.00812 9.3941 8.05214 9.31664 8.13048C9.23918 8.20882 9.19566 8.31507 9.19565 8.42586V20.5822C9.19566 20.693 9.23918 20.7993 9.31664 20.8776C9.3941 20.956 9.49915 21 9.6087 21H13.7391C13.8487 21 13.9537 20.956 14.0312 20.8776C14.1086 20.7993 14.1522 20.693 14.1522 20.5822V13.8982V13.7734V13.6477C14.1522 12.8262 14.7855 12.1856 15.5978 12.1856C16.4101 12.1856 17.0435 12.8262 17.0435 13.6477V20.5406C17.0435 20.6514 17.087 20.7577 17.1645 20.836C17.2419 20.9144 17.347 20.9584 17.4565 20.9584H21.587C21.6965 20.9584 21.8016 20.9144 21.879 20.836C21.9565 20.7577 22 20.6514 22 20.5406V13.4389C22 11.7077 21.4968 10.3418 20.652 9.41231C19.8071 8.48281 18.6316 8.00811 17.3742 8.00811C15.76 8.00811 14.7811 8.60206 14.1522 9.08758V8.42586C14.1522 8.31507 14.1086 8.20882 14.0312 8.13048C13.9537 8.05214 13.8487 8.00812 13.7391 8.00811H9.6087Z" fill="white"/>
</g>
<defs>
<filter id="filter0_i_479_939" x="3" y="3" width="19" height="19" filterUnits="userSpaceOnUse" color-interpolation-filters="sRGB">
<feFlood flood-opacity="0" result="BackgroundImageFix"/>
<feBlend mode="normal" in="SourceGraphic" in2="BackgroundImageFix" result="shape"/>
<feColorMatrix in="SourceAlpha" type="matrix" values="0 0 0 0 0 0 0 0 0 0 0 0 0 0 0 0 0 0 127 0" result="hardAlpha"/>
<feOffset dy="1"/>
<feGaussianBlur stdDeviation="0.5"/>
<feComposite in2="hardAlpha" operator="arithmetic" k2="-1" k3="1"/>
<feColorMatrix type="matrix" values="0 0 0 0 0 0 0 0 0 0 0 0 0 0 0 0 0 0 0.42 0"/>
<feBlend mode="normal" in2="shape" result="effect1_innerShadow_479_939"/>
</filter>
</defs>
</svg>
