<svg width="150" height="27" viewBox="0 0 150 27" fill="none" xmlns="http://www.w3.org/2000/svg">
<path d="M6.6 21.472C4.952 21.472 3.56 21.104 2.424 20.368C1.288 19.632 0.48 18.616 0 17.32L2.832 15.664C3.488 17.376 4.776 18.232 6.696 18.232C7.592 18.232 8.264 18.072 8.712 17.752C9.16 17.432 9.384 17 9.384 16.456C9.384 15.864 9.12 15.408 8.592 15.088C8.064 14.752 7.12 14.392 5.76 14.008C4.288 13.56 3.128 13.04 2.28 12.448C1.224 11.664 0.696 10.512 0.696 8.992C0.696 7.456 1.232 6.248 2.304 5.368C3.376 4.456 4.68 4 6.216 4C7.56 4 8.752 4.328 9.792 4.984C10.832 5.64 11.64 6.568 12.216 7.768L9.432 9.376C8.76 7.936 7.688 7.216 6.216 7.216C5.544 7.216 5.008 7.376 4.608 7.696C4.208 8 4.008 8.4 4.008 8.896C4.008 9.424 4.224 9.856 4.656 10.192C5.136 10.528 5.984 10.88 7.2 11.248L8.352 11.632C8.56 11.696 8.92 11.832 9.432 12.04C9.912 12.216 10.264 12.384 10.488 12.544C11.272 13.024 11.8 13.52 12.072 14.032C12.488 14.704 12.696 15.496 12.696 16.408C12.696 17.96 12.128 19.192 10.992 20.104C9.856 21.016 8.392 21.472 6.6 21.472Z" fill="white"/>
<path d="M23.091 4.336V17.968H29.499V21.136H19.779V4.336H23.091Z" fill="white"/>
<path d="M71.5891 12.424C73.0611 13.272 73.7971 14.552 73.7971 16.264C73.7971 17.688 73.2931 18.856 72.2851 19.768C71.2771 20.68 70.0371 21.136 68.5651 21.136H61.4371V4.336H68.0611C69.4851 4.336 70.6931 4.784 71.6851 5.68C72.6771 6.576 73.1731 7.704 73.1731 9.064C73.1731 10.456 72.6451 11.576 71.5891 12.424ZM68.0611 7.432H64.7491V11.128H68.0611C68.5731 11.128 68.9971 10.952 69.3331 10.6C69.6851 10.248 69.8611 9.808 69.8611 9.28C69.8611 8.752 69.6931 8.312 69.3571 7.96C69.0211 7.608 68.5891 7.432 68.0611 7.432ZM64.7491 18.04H68.5651C69.1251 18.04 69.5891 17.856 69.9571 17.488C70.3251 17.104 70.5091 16.624 70.5091 16.048C70.5091 15.488 70.3251 15.024 69.9571 14.656C69.5891 14.272 69.1251 14.08 68.5651 14.08H64.7491V18.04Z" fill="white"/>
<path d="M81.0084 21.136V4.336H84.3204V21.136H81.0084Z" fill="white"/>
<path d="M91.2222 4.336H103.582V7.504H99.0462V21.136H95.7342V7.504H91.2222V4.336Z" fill="white"/>
<path d="M113.783 14.2V17.968H120.863V21.136H110.471V4.336H120.743V7.504H113.783V11.08H120.143V14.2H113.783Z" fill="white"/>
<path d="M134.91 12.496L141.366 21.136H137.55L131.55 13.264V21.136H128.238V4.336H131.55V11.752L137.31 4.336H141.126L134.91 12.496Z" fill="white"/>
<path d="M35 22.4992C34.9992 21.9486 35.1289 21.4061 35.3776 20.9171C35.4957 20.6875 35.638 20.4717 35.8018 20.2735C36.1337 19.873 36.5471 19.5513 37.0145 19.3313C37.4819 19.1113 37.991 18.9983 38.5058 19C39.4257 18.9955 40.309 19.3611 40.9636 20.0169C41.619 20.6726 41.9908 21.5651 42 22.4992C42.0008 22.7691 41.9692 23.0381 41.906 23.3002C41.8478 23.5531 41.7613 23.7981 41.6473 24.0304C41.3554 24.6225 40.9071 25.1204 40.3523 25.4682C39.7975 25.8161 39.1579 26.0001 38.5058 25.9999C37.5842 26.0076 36.6968 25.6433 36.0397 24.9869C35.3818 24.3305 35.0083 23.4357 35 22.4992Z" fill="#3778BF"/>
<path d="M53 7.99952C52.9995 7.68493 53.0737 7.37491 53.2158 7.09547C53.2833 6.96431 53.3645 6.84097 53.4582 6.7277C53.6478 6.49886 53.884 6.31505 54.1511 6.18933C54.4183 6.06361 54.7091 5.999 55.0033 6.00002C55.529 5.99745 56.0337 6.20635 56.4078 6.58107C56.7823 6.95575 56.9948 7.46577 57 7.99952C57.0005 8.15377 56.9824 8.30749 56.9463 8.45728C56.913 8.60176 56.8636 8.74177 56.7985 8.87449C56.6316 9.21285 56.3755 9.4974 56.0585 9.69614C55.7414 9.89492 55.3759 10.0001 55.0033 9.99993C54.4767 10.0044 53.9696 9.79619 53.5941 9.42107C53.2182 9.04601 53.0048 8.53467 53 7.99952Z" fill="url(#paint0_linear_629_195)"/>
<path d="M56 13.1164C56 15.9196 55.0374 18.6361 53.2761 20.803C51.5149 22.9699 49.064 24.4531 46.3411 25M32.9134 17.7532C31.851 15.1634 31.7108 12.2817 32.5167 9.59921C33.3226 6.91672 35.0248 4.59937 37.3332 3.042C39.6415 1.48463 42.4133 0.783602 45.1762 1.05836C47.9391 1.33312 50.5222 2.56667 52.4853 4.54883M49.5 23.8852L47 24.8481L46.3565 24.9969L44.5 25.36" stroke="url(#paint1_linear_629_195)" stroke-width="2"/>
<path d="M145 18.4994C144.999 18.1062 145.092 17.7186 145.27 17.3693C145.354 17.2054 145.456 17.0512 145.573 16.9096C145.81 16.6236 146.105 16.3938 146.439 16.2367C146.773 16.0795 147.136 15.9988 147.504 16C148.161 15.9968 148.792 16.2579 149.26 16.7263C149.728 17.1947 149.993 17.8322 150 18.4994C150.001 18.6922 149.978 18.8844 149.933 19.0716C149.891 19.2522 149.829 19.4272 149.748 19.5931C149.54 20.0161 149.219 20.3717 148.823 20.6202C148.427 20.8687 147.97 21.0001 147.504 20.9999C146.846 21.0054 146.212 20.7452 145.743 20.2763C145.273 19.8075 145.006 19.1683 145 18.4994Z" fill="white"/>
<defs>
<linearGradient id="paint0_linear_629_195" x1="57" y1="8" x2="53" y2="8" gradientUnits="userSpaceOnUse">
<stop stop-color="#5B80E6"/>
<stop offset="1" stop-color="#7858C7"/>
</linearGradient>
<linearGradient id="paint1_linear_629_195" x1="32" y1="13.18" x2="56" y2="13.18" gradientUnits="userSpaceOnUse">
<stop stop-color="#5B80E6"/>
<stop offset="1" stop-color="#7858C7"/>
</linearGradient>
</defs>
</svg>
