<svg width="37" height="32" viewBox="0 0 37 32" fill="none" xmlns="http://www.w3.org/2000/svg">
<path fill-rule="evenodd" clip-rule="evenodd" d="M13.7344 9.00779C13.619 8.8966 13.5563 8.73884 13.562 8.57506C13.5663 8.40979 13.639 8.25653 13.7601 8.15284L16.1252 6.14097C16.356 5.94564 16.6923 5.9832 16.8775 6.22661C17.0627 6.46852 17.0271 6.82462 16.7963 7.01994L14.9156 8.61859L16.7066 10.348H16.708C16.926 10.5583 16.9402 10.9159 16.7407 11.1458C16.5413 11.3757 16.2036 11.3907 15.9856 11.1804L13.7344 9.00779ZM17.5029 13.7093C17.5428 13.7198 17.5842 13.7243 17.6255 13.7243C17.8734 13.7243 18.0885 13.544 18.1455 13.2886L19.9749 4.97837C20.0419 4.67486 19.8638 4.37137 19.576 4.30075C19.2882 4.22863 19.0004 4.41794 18.932 4.72147L17.1012 13.0305C17.0698 13.1763 17.0926 13.3295 17.1681 13.4572C17.2436 13.5835 17.3633 13.6736 17.5015 13.7082L17.5029 13.7093ZM20.2627 7.28151C20.1473 7.18986 20.0732 7.05162 20.0561 6.90138C20.039 6.74962 20.0803 6.59787 20.1715 6.47915C20.2613 6.36046 20.3938 6.28533 20.5377 6.27181C20.6816 6.25678 20.8241 6.30486 20.9352 6.40403L23.2989 8.4144C23.42 8.51808 23.4912 8.67133 23.4969 8.83513C23.5012 8.9989 23.4385 9.15816 23.3245 9.26935L21.0734 11.442H21.072C20.854 11.6523 20.5163 11.6358 20.3168 11.4059C20.1174 11.176 20.1316 10.8184 20.3496 10.6081L22.142 8.87869L20.2627 7.28151ZM10.7853 9.0049C10.7853 11.1385 11.5889 13.1848 13.0193 14.6934C14.4512 16.2019 16.3918 17.0493 18.4149 17.0493C20.4381 17.0493 22.3771 16.2019 23.8091 14.6919C25.2396 13.1834 26.0431 11.1369 26.0431 9.0034C26.0431 6.86987 25.2396 4.82349 23.8077 3.31492C22.3772 1.80639 20.4367 0.958984 18.4135 0.958984C16.3918 0.96199 14.4528 1.80939 13.0223 3.31792C11.5918 4.82645 10.7867 6.8714 10.7853 9.0049ZM3.97341 26.5588H32.855V7.44095C32.8536 6.36214 32.0244 5.48769 31.0014 5.48769H26.448C27.5622 8.31843 27.263 11.5489 25.6487 14.0987C24.0344 16.6469 21.3203 18.1778 18.4137 18.1778C15.5071 18.1778 12.793 16.6468 11.1787 14.0987C9.56586 11.5489 9.26524 8.31866 10.3808 5.48769H5.82596C4.80439 5.48769 3.97519 6.36214 3.97377 7.44095L3.97341 26.5588ZM36.2044 28.1395L36.2058 28.141C36.2058 27.8901 36.0135 27.6872 35.777 27.6872H1.01285C0.776334 27.6887 0.583984 27.8901 0.583984 28.141V29.1837C0.583984 30.0191 1.23796 31.0423 2.00304 31.0423H34.7899C35.5536 31.0423 36.209 30.0206 36.209 29.1852L36.2076 28.141L36.2044 28.1395ZM19.5887 28.7991L19.5901 28.8006C19.885 28.8006 20.1244 29.053 20.1244 29.3655C20.1244 29.6766 19.885 29.929 19.5901 29.929H17.2008C17.0569 29.9335 16.9158 29.8764 16.8132 29.7697C16.7092 29.663 16.6508 29.5173 16.6508 29.364C16.6508 29.2123 16.7092 29.0665 16.8132 28.9598C16.9158 28.8532 17.0569 28.7961 17.2008 28.8006L19.5887 28.7991ZM2.65086 28.7825C2.94578 28.7841 3.18513 29.0365 3.18659 29.3475V29.3821C3.17804 29.6886 2.94153 29.932 2.65086 29.932C2.36163 29.932 2.1237 29.6886 2.11513 29.3821V29.3475C2.11513 29.0365 2.35449 28.7841 2.65086 28.7825ZM5.15418 28.7825C5.45053 28.7841 5.68991 29.0365 5.68991 29.3475V29.3821C5.68278 29.6886 5.44485 29.932 5.15564 29.932C4.86498 29.932 4.62848 29.6886 4.61991 29.3821V29.3475C4.61991 29.0365 4.85927 28.7841 5.15418 28.7825ZM7.65892 28.7825C7.95527 28.7841 8.19465 29.0365 8.19465 29.3475V29.3821C8.18611 29.6886 7.94959 29.932 7.65892 29.932C7.36969 29.932 7.13176 29.6886 7.12465 29.3821V29.3475C7.12465 29.0365 7.36401 28.7841 7.65892 28.7825Z" fill="white"/>
</svg>
