<svg width="38" height="38" viewBox="0 0 38 38" fill="none" xmlns="http://www.w3.org/2000/svg">
<g clip-path="url(#clip0_479_671)" filter="url(#filter0_i_479_671)">
<path d="M24.3469 33.2833L23.8375 33.4396C23.6973 33.4824 23.5519 33.5041 23.4046 33.5041C22.8726 33.5041 22.3762 33.214 22.1079 32.7471L20.7179 30.3019C20.3682 29.6854 20.4804 28.9158 20.9898 28.4296L21.377 28.0593L20.9892 27.6889C20.4804 27.2033 20.3682 26.4337 20.7173 25.8185L22.1049 23.3768C22.3768 22.9045 22.8732 22.615 23.404 22.615C23.5519 22.615 23.6985 22.6373 23.8398 22.6807L24.3457 22.8352L24.4674 22.3086C24.6277 21.6173 25.228 21.1342 25.9275 21.1342H27.9082V9.04779C27.9082 6.73401 26.0664 4.8515 23.7947 4.82798C23.7911 4.82798 23.7882 4.82798 23.7852 4.82798C23.7739 4.82798 23.7632 4.82617 23.752 4.82617H14.252C14.2407 4.82617 14.23 4.82798 14.2193 4.82798C14.2163 4.82798 14.2128 4.82798 14.2098 4.82798C11.9381 4.8515 10.0957 6.73462 10.0957 9.04779V29.5557C10.0957 31.884 11.9607 33.778 14.252 33.778H23.752C23.9871 33.778 24.2186 33.755 24.446 33.7164L24.3469 33.2833ZM25.1342 16.2992C25.32 16.5235 25.32 16.8523 25.1342 17.0766L22.869 19.8054C22.7515 19.9472 22.584 20.0195 22.4142 20.0195C22.2789 20.0195 22.1435 19.9731 22.0319 19.8778C21.7813 19.6631 21.7492 19.2825 21.9606 19.0279L23.9028 16.6876L21.9606 14.3479C21.7498 14.0933 21.7813 13.7127 22.0319 13.498C22.2824 13.2833 22.6571 13.3159 22.8685 13.5704L25.1342 16.2992ZM16.0439 19.0279C16.2547 19.2825 16.2232 19.6631 15.9726 19.8778C15.861 19.9731 15.7256 20.0195 15.5903 20.0195C15.421 20.0195 15.2536 19.9466 15.1355 19.8054L12.8703 17.0766C12.6845 16.8523 12.6845 16.5235 12.8703 16.2992L15.1355 13.5704C15.3468 13.3153 15.7203 13.2827 15.972 13.498C16.2226 13.7127 16.2547 14.0933 16.0433 14.3479L14.1011 16.6876L16.0439 19.0279ZM15.4786 6.57116L15.2132 6.03131H22.7919L22.5265 6.57116C22.324 6.98252 21.9173 7.23766 21.4642 7.23766H16.5415C16.0884 7.23766 15.6811 6.98252 15.4786 6.57116ZM17.7408 20.709C17.6714 20.709 17.6013 20.6963 17.5318 20.6704C17.2249 20.5533 17.0699 20.2053 17.1845 19.8935L19.7079 13.0577C19.8231 12.7453 20.1651 12.589 20.4727 12.7048C20.7796 12.8219 20.9346 13.1699 20.82 13.4817L18.2966 20.3175C18.2075 20.5594 17.9813 20.709 17.7408 20.709Z" fill="white"/>
<path d="M32.3142 28.8201C32.1118 28.6271 31.996 28.3539 31.996 28.0523C31.996 27.7664 32.113 27.4907 32.3178 27.2953L32.8261 26.8097C32.9317 26.709 32.9549 26.548 32.8819 26.4201L31.4949 23.9796C31.423 23.8524 31.274 23.7915 31.1345 23.8349L30.5152 24.0243C30.2308 24.1123 29.9202 24.0737 29.6548 23.9163C29.4031 23.7679 29.2208 23.517 29.1537 23.2293L29.0041 22.5851C28.9714 22.4422 28.8456 22.3408 28.7007 22.3408H25.9267C25.7818 22.3408 25.6559 22.4422 25.6233 22.5851L25.4736 23.2293C25.4066 23.517 25.2243 23.7679 24.9583 23.9248C24.7053 24.0749 24.3984 24.1111 24.1175 24.0261L23.4929 23.8349C23.3551 23.7921 23.2055 23.853 23.1325 23.9796L21.7455 26.4201C21.6731 26.5474 21.6962 26.709 21.8013 26.8097L22.3096 27.2953C22.5144 27.4907 22.6314 27.7664 22.6314 28.0662C22.6314 28.3521 22.5144 28.6277 22.3096 28.8231L21.8013 29.3087C21.6956 29.4094 21.6725 29.5705 21.7455 29.6983L23.1325 32.1388C23.2049 32.2661 23.3546 32.3264 23.4929 32.2842L24.1175 32.0929C24.3984 32.0067 24.7077 32.0447 24.9731 32.2027C25.2243 32.3511 25.4066 32.6014 25.4736 32.8885L25.6233 33.5339C25.6559 33.6775 25.7818 33.7782 25.9267 33.7782H28.7007C28.8456 33.7782 28.9714 33.6769 29.0041 33.5339L29.1537 32.8891C29.2208 32.6014 29.4031 32.3517 29.6643 32.1967C29.9208 32.0447 30.2296 32.0067 30.5098 32.0935L31.1345 32.2848C31.2746 32.3276 31.423 32.2667 31.4949 32.1394L32.8819 29.6989C32.9543 29.5717 32.9311 29.41 32.8261 29.3093L32.3142 28.8207V28.8201ZM27.3143 30.4722C26.0027 30.4722 24.9393 29.3919 24.9393 28.0595C24.9393 26.7271 26.0027 25.6468 27.3143 25.6468C28.6259 25.6468 29.6893 26.7271 29.6893 28.0595C29.6893 29.3919 28.6259 30.4722 27.3143 30.4722Z" fill="white"/>
</g>
<defs>
<filter id="filter0_i_479_671" x="0.00195312" y="0" width="38" height="38.8" filterUnits="userSpaceOnUse" color-interpolation-filters="sRGB">
<feFlood flood-opacity="0" result="BackgroundImageFix"/>
<feBlend mode="normal" in="SourceGraphic" in2="BackgroundImageFix" result="shape"/>
<feColorMatrix in="SourceAlpha" type="matrix" values="0 0 0 0 0 0 0 0 0 0 0 0 0 0 0 0 0 0 127 0" result="hardAlpha"/>
<feOffset dy="0.8"/>
<feGaussianBlur stdDeviation="0.4"/>
<feComposite in2="hardAlpha" operator="arithmetic" k2="-1" k3="1"/>
<feColorMatrix type="matrix" values="0 0 0 0 0 0 0 0 0 0 0 0 0 0 0 0 0 0 0.4 0"/>
<feBlend mode="normal" in2="shape" result="effect1_innerShadow_479_671"/>
</filter>
<clipPath id="clip0_479_671">
<rect width="38" height="38" fill="white" transform="translate(0.00195312)"/>
</clipPath>
</defs>
</svg>
