<svg width="34" height="31" viewBox="0 0 34 31" fill="none" xmlns="http://www.w3.org/2000/svg">
<path fill-rule="evenodd" clip-rule="evenodd" d="M0.455078 7.03349H33.5547V3.87716C33.5547 2.97218 33.175 2.10436 32.4992 1.46423C31.8238 0.824447 30.9076 0.464844 29.9522 0.464844H4.05752C3.10212 0.464844 2.18595 0.824447 1.51051 1.46423C0.834718 2.10436 0.455078 2.97218 0.455078 3.87716V7.03349ZM23.6642 2.64292C24.3087 2.64292 24.8319 3.13852 24.8319 3.749C24.8319 4.35981 24.3087 4.85542 23.6642 4.85542C23.0194 4.85542 22.4962 4.35981 22.4962 3.749C22.4962 3.13852 23.0194 2.64292 23.6642 2.64292ZM28.4639 2.64292C29.1084 2.64292 29.6316 3.13852 29.6316 3.749C29.6316 4.35981 29.1084 4.85542 28.4639 4.85542C27.8194 4.85542 27.2958 4.35981 27.2958 3.749C27.2958 3.13852 27.8194 2.64292 28.4639 2.64292Z" fill="white"/>
<path fill-rule="evenodd" clip-rule="evenodd" d="M11.1709 22.4326C10.7931 22.5788 10.4088 22.676 10.0277 22.7196C9.46885 22.7837 8.87978 22.7595 8.30078 22.6399L8.6466 30.801H10.8165L11.1709 22.4326Z" fill="white"/>
<path fill-rule="evenodd" clip-rule="evenodd" d="M9.21911 10.2842C9.21911 10.2842 13.814 12.8426 14.0015 15.9945C14.189 19.1461 12.0274 21.4605 9.89851 21.7049C8.0003 21.9227 5.68684 20.8228 5.45186 18.022C5.27229 15.8787 6.81748 15.1475 7.82434 13.6351C8.94599 11.951 9.21911 10.2842 9.21911 10.2842Z" fill="white"/>
<path d="M26.09 21.22C27.1634 21.22 28.0336 20.3958 28.0336 19.3791C28.0336 18.3623 27.1634 17.5381 26.09 17.5381C25.0166 17.5381 24.1465 18.3623 24.1465 19.3791C24.1465 20.3958 25.0166 21.22 26.09 21.22Z" fill="white"/>
<path d="M18.9202 21.2203C19.738 21.2203 20.401 20.5923 20.401 19.8177C20.401 19.043 19.738 18.415 18.9202 18.415C18.1024 18.415 17.4395 19.043 17.4395 19.8177C17.4395 20.5923 18.1024 21.2203 18.9202 21.2203Z" fill="white"/>
<path fill-rule="evenodd" clip-rule="evenodd" d="M7.30947 24.7501L7.20512 22.2871C5.75313 21.6368 4.55807 20.2853 4.37491 18.1024C4.25976 16.7308 4.69157 15.8098 5.31807 14.9911C5.79487 14.3683 6.42029 13.8253 6.9104 13.0891C7.9025 11.5989 8.15152 10.1264 8.15152 10.1264C8.20621 9.79165 8.43256 9.5043 8.7557 9.35944C9.07885 9.21424 9.45705 9.23026 9.76544 9.40171C9.76544 9.40171 11.5575 10.3984 13.0343 11.9336C14.1084 13.0502 14.9897 14.4467 15.0786 15.9363C15.2366 18.5946 13.9447 20.7181 12.2757 21.8494L12.153 24.7501H33.5547V8.05566H0.455078V24.7501H7.30947ZM18.9214 17.3921C17.5083 17.3921 16.3611 18.4787 16.3611 19.8173C16.3611 21.1558 17.5083 22.2425 18.9214 22.2425C20.3345 22.2425 21.4817 21.1558 21.4817 19.8173C21.4817 18.4787 20.3345 17.3921 18.9214 17.3921ZM26.0896 16.515C24.4213 16.515 23.0665 17.7984 23.0665 19.3786C23.0665 20.9591 24.4213 22.2425 26.0896 22.2425C27.7582 22.2425 29.1131 20.9591 29.1131 19.3786C29.1131 17.7984 27.7582 16.515 26.0896 16.515ZM22.2428 9.77222C20.3741 9.77222 18.857 11.2093 18.857 12.9793C18.857 14.7494 20.3741 16.1865 22.2428 16.1865C24.1115 16.1865 25.629 14.7494 25.629 12.9793C25.629 11.2093 24.1115 9.77222 22.2428 9.77222Z" fill="white"/>
<path d="M22.2418 15.164C23.5155 15.164 24.5481 14.186 24.5481 12.9795C24.5481 11.773 23.5155 10.7949 22.2418 10.7949C20.9681 10.7949 19.9355 11.773 19.9355 12.9795C19.9355 14.186 20.9681 15.164 22.2418 15.164Z" fill="white"/>
</svg>
