<svg width="38" height="38" viewBox="0 0 38 38" fill="none" xmlns="http://www.w3.org/2000/svg">
<g clip-path="url(#clip0_479_679)" filter="url(#filter0_i_479_679)">
<path d="M1.52148 3.08594V23.3817H18.2415V3.08594H1.52148ZM9.97648 18.4585C7.09532 18.4585 4.75148 16.1146 4.75148 13.2335C4.75148 10.3523 7.09532 8.00846 9.97648 8.00846C12.8576 8.00846 15.2015 10.3523 15.2015 13.2335C15.2015 16.1146 12.8576 18.4585 9.97648 18.4585Z" fill="white"/>
<path d="M28.0273 9.52832C25.9844 9.52832 24.3223 11.1904 24.3223 13.2333C24.3223 15.2762 25.9844 16.9383 28.0273 16.9383C30.0701 16.9383 31.7323 15.2762 31.7323 13.2333C31.7323 11.1904 30.0701 9.52832 28.0273 9.52832ZM29.795 13.9264C30.0922 14.2236 30.0922 14.7039 29.795 15.0011C29.6468 15.1493 29.4523 15.2238 29.2577 15.2238C29.0631 15.2238 28.8686 15.1493 28.7204 15.0011L28.0273 14.308L27.3341 15.0011C27.1859 15.1493 26.9914 15.2238 26.7968 15.2238C26.6023 15.2238 26.4077 15.1493 26.2595 15.0011C25.9623 14.7039 25.9623 14.2236 26.2595 13.9264L26.9526 13.2333L26.2595 12.5402C25.9623 12.243 25.9623 11.7627 26.2595 11.4656C26.5567 11.1684 27.037 11.1684 27.3341 11.4656L28.0273 12.1587L28.7204 11.4656C29.0175 11.1684 29.4979 11.1684 29.795 11.4656C30.0922 11.7627 30.0922 12.243 29.795 12.5402L29.1019 13.2333L29.795 13.9264Z" fill="white"/>
<path d="M9.97648 9.52832C7.9336 9.52832 6.27148 11.1904 6.27148 13.2333C6.27148 15.2762 7.9336 16.9383 9.97648 16.9383C12.0194 16.9383 13.6815 15.2762 13.6815 13.2333C13.6815 11.1904 12.0194 9.52832 9.97648 9.52832ZM12.4366 12.5166L10.1779 14.9775C10.1315 15.0277 10.073 15.0566 10.0175 15.0915C9.98712 15.1105 9.96204 15.1394 9.92936 15.1538C9.83056 15.1987 9.72416 15.2238 9.617 15.2238C9.5296 15.2238 9.44296 15.207 9.3586 15.1759C9.33124 15.166 9.30844 15.1462 9.28184 15.1333C9.23472 15.1098 9.18608 15.0915 9.14352 15.0573L7.60224 13.8269C7.27392 13.5647 7.22072 13.0866 7.48216 12.7583C7.74512 12.4308 8.2224 12.3776 8.55072 12.6382L9.53796 13.4264L11.3164 11.4884C11.6006 11.179 12.0802 11.1578 12.3902 11.442C12.6996 11.727 12.7201 12.2073 12.4366 12.5166Z" fill="white"/>
<path d="M36.4837 3.08594H19.7637V23.3817H36.4837V3.08594ZM28.0287 18.4585C25.1475 18.4585 22.8037 16.1146 22.8037 13.2335C22.8037 10.3523 25.1475 8.00846 28.0287 8.00846C30.9098 8.00846 33.2537 10.3523 33.2537 13.2335C33.2537 16.1146 30.9098 18.4585 28.0287 18.4585Z" fill="white"/>
<path d="M36.4815 24.9014H1.52148V28.3882H36.4815V24.9014ZM20.406 27.4048H17.5978C17.1782 27.4048 16.8378 27.0651 16.8378 26.6448C16.8378 26.2245 17.1782 25.8848 17.5978 25.8848H20.406C20.8262 25.8848 21.166 26.2245 21.166 26.6448C21.166 27.0651 20.8255 27.4048 20.406 27.4048Z" fill="white"/>
<path d="M29.0168 33.3941H19.763V29.9072H18.243V33.3941H8.98852C8.569 33.3941 8.22852 33.7338 8.22852 34.1541C8.22852 34.5744 8.569 34.9141 8.98852 34.9141H29.0168C29.4371 34.9141 29.7768 34.5744 29.7768 34.1541C29.7768 33.7338 29.4371 33.3941 29.0168 33.3941Z" fill="white"/>
</g>
<defs>
<filter id="filter0_i_479_679" x="0.00195312" y="0" width="38" height="38.8" filterUnits="userSpaceOnUse" color-interpolation-filters="sRGB">
<feFlood flood-opacity="0" result="BackgroundImageFix"/>
<feBlend mode="normal" in="SourceGraphic" in2="BackgroundImageFix" result="shape"/>
<feColorMatrix in="SourceAlpha" type="matrix" values="0 0 0 0 0 0 0 0 0 0 0 0 0 0 0 0 0 0 127 0" result="hardAlpha"/>
<feOffset dy="0.8"/>
<feGaussianBlur stdDeviation="0.4"/>
<feComposite in2="hardAlpha" operator="arithmetic" k2="-1" k3="1"/>
<feColorMatrix type="matrix" values="0 0 0 0 0 0 0 0 0 0 0 0 0 0 0 0 0 0 0.42 0"/>
<feBlend mode="normal" in2="shape" result="effect1_innerShadow_479_679"/>
</filter>
<clipPath id="clip0_479_679">
<rect width="38" height="38" fill="white" transform="translate(0.00195312)"/>
</clipPath>
</defs>
</svg>
